# xmcd
#
# Track frame offsets:
#	150
#	17252
#	31589
#	59832
#	76126
#	90849
#	110566
#	125571
#	141480
#	157258
#	172148
#	192045
#
# Disc length: 2812 seconds
#
# Revision: 1
# Processed by: cddbd v1.5.2PL0 Copyright (c) Steve Scherf et al.
# Submitted via: audiograbber 1.83.01
#
DISCID=9a0afa0c
DTITLE=King of the World - KOTW
DYEAR=2014
DGENRE=Blues
TTITLE0=Fool no more
TTITLE1=Someway somehow
TTITLE2=If you want to leave
TTITLE3=Living with the ghost of the past
TTITLE4=On my way back home
TTITLE5=Beating like a drum
TTITLE6=Get up and do it
TTITLE7=Hurricane
TTITLE8=Messing with my mind
TTITLE9=Doctor Doctor
TTITLE10=Money Means Trouble
TTITLE11=I shall be released
EXTD=
EXTT0=
EXTT1=
EXTT2=
EXTT3=
EXTT4=
EXTT5=
EXTT6=
EXTT7=
EXTT8=
EXTT9=
EXTT10=
EXTT11=
PLAYORDER=
